<svg width="945" height="495" viewBox="0 0 945 495" fill="none" xmlns="http://www.w3.org/2000/svg">
<g clip-path="url(#clip0_16_420)">
<rect width="945" height="495" fill="white"/>
<path d="M0 0H945V495H0V0Z" fill="#F8F8F8"/>
<path d="M104.374 40.0008C62.6245 39.0969 17.3957 52.4293 0 59.2085V495.028H945V40.0008C801.579 40.0008 755.399 117.585 621.74 64.4811C488.081 11.3775 428.385 49.4163 381.079 70.5071C333.772 91.5979 287.968 88.5849 247.795 82.559C207.622 76.533 156.561 41.1307 104.374 40.0008Z" fill="#3E5FFF"/>
<path d="M622.268 167.548L477.638 118.078C446.263 107.347 411.536 114.19 386.495 136.033L271.247 236.68C246.205 258.523 234.741 292.04 241.188 324.558L270.655 474.704C277.073 507.307 300.334 533.985 331.709 544.717L476.339 594.187C507.714 604.918 542.441 598.075 567.482 576.232L682.731 475.585C707.772 453.742 719.236 420.225 712.789 387.707L683.322 237.561C676.904 204.957 653.643 178.28 622.268 167.548Z" fill="white"/>
<path d="M542.637 -2.28167L541.754 198.599C542.59 219.033 526.232 236.356 505.294 237.212C505.996 254.377 505.996 254.377 505.996 254.377C536.634 253.124 560.569 227.779 559.347 197.88L560.23 -2.28201L542.637 -2.28167Z" fill="black"/>
<path d="M603.65 484.496L310.667 413.396C296.09 409.858 287.142 395.175 290.679 380.598L331.206 213.598C334.743 199.021 349.427 190.073 364.004 193.61L656.986 264.71C671.563 268.247 680.512 282.931 676.974 297.507L636.447 464.508C632.91 479.084 618.226 488.033 603.65 484.496Z" fill="#FF7059"/>
<path d="M674.479 307.789L328.711 223.879L331.206 213.598C334.743 199.021 349.427 190.073 364.004 193.61L656.986 264.71C671.563 268.247 680.512 282.931 676.974 297.507L674.479 307.789Z" fill="#E55041"/>
<rect width="94.4061" height="94.4061" rx="19.2665" transform="matrix(-0.971794 -0.235831 -0.235831 0.971794 444.799 297.426)" fill="#E55041"/>
<path d="M366.375 340.572C365.18 341.683 364.347 343.119 363.962 344.706L363.375 347.098C362.363 351.225 364.893 355.389 369.022 356.391L394.363 362.541C398.494 363.543 402.654 360.999 403.643 356.864L404.215 354.474C404.54 353.131 404.418 350.985 403.949 349.688L401.216 342.174C400.375 339.868 397.763 337.526 395.385 336.949L379.848 333.179C377.463 332.6 374.068 333.485 372.264 335.148L366.375 340.572Z" fill="white"/>
<circle cx="392.607" cy="314.542" r="13.5279" transform="rotate(13.6406 392.607 314.542)" fill="white"/>
<rect width="157.986" height="25.0465" rx="12.5233" transform="matrix(-0.971794 -0.235831 -0.235831 0.971794 627.432 353.641)" fill="#E55041"/>
<rect width="157.986" height="25.0465" rx="12.5233" transform="matrix(-0.971794 -0.235831 -0.235831 0.971794 617.436 394.832)" fill="#E55041"/>
<circle cx="360.485" cy="211.784" r="5.77996" transform="rotate(13.6406 360.485 211.784)" fill="#FF7059"/>
<circle cx="379.208" cy="216.328" r="5.77996" transform="rotate(13.6406 379.208 216.328)" fill="#FF7059"/>
<circle cx="397.932" cy="220.871" r="5.77996" transform="rotate(13.6406 397.932 220.871)" fill="#FF7059"/>
<path d="M502.026 254.539L501.326 237.421C480.686 238.265 463.213 222.371 462.379 201.993L462.058 194.151L444.72 194.86L445.04 202.702C446.26 232.52 471.824 255.774 502.026 254.539Z" fill="black"/>
<path d="M451.572 159.271C452.154 158.089 453.841 158.089 454.423 159.271L471.823 194.605C472.343 195.661 471.574 196.896 470.397 196.896H435.598C434.421 196.896 433.652 195.661 434.172 194.605L451.572 159.271Z" fill="black"/>
<path d="M508.618 243.531C509.93 247.947 507.527 252.972 503.111 254.285C498.694 255.597 493.937 252.7 492.624 248.284C491.312 243.868 494.59 238.997 499.006 237.685C503.422 236.372 507.305 239.115 508.618 243.531Z" fill="black"/>
<path d="M1135.37 249.685L894.615 314.197C882.636 317.407 870.324 310.298 867.115 298.32L830.343 161.087C827.134 149.108 834.242 136.797 846.22 133.587L1086.98 69.0756C1098.96 65.866 1111.27 72.9742 1114.48 84.9526L1151.25 222.186C1154.46 234.164 1147.35 246.476 1135.37 249.685Z" fill="#95D1F9"/>
<path d="M1116.74 93.4014L832.607 169.536L830.343 161.087C827.134 149.108 834.242 136.797 846.22 133.587L1086.98 69.0756C1098.96 65.866 1111.27 72.9742 1114.48 84.9526L1116.74 93.4014Z" fill="#6AAED8"/>
<rect width="78.0499" height="78.0499" rx="13.6052" transform="matrix(-0.965926 0.258819 0.258819 0.965926 945.984 176.897)" fill="#6AAED8"/>
<path d="M906.178 239.281C905.751 240.56 905.716 241.933 906.065 243.236L906.825 246.102C907.594 249.003 910.572 250.727 913.471 249.95L936.088 243.89C938.988 243.113 940.705 240.128 939.918 237.231L939.143 234.373C938.847 233.27 937.908 231.761 937.054 231.006L932.093 226.637C930.569 225.297 927.746 224.633 925.792 225.156L913.024 228.577C911.064 229.103 908.951 231.09 908.301 233.012L906.178 239.281Z" fill="white"/>
<circle cx="914.896" cy="209.999" r="11.1842" transform="rotate(-15 914.896 209.999)" fill="white"/>
<circle cx="850.869" cy="148.168" r="4.77882" transform="rotate(-15 850.869 148.168)" fill="white"/>
<circle cx="866.255" cy="144.046" r="4.77882" transform="rotate(-15 866.255 144.046)" fill="white"/>
<circle cx="881.641" cy="139.922" r="4.77882" transform="rotate(-15 881.641 139.922)" fill="white"/>
<path d="M95.4484 545.396L-145.312 480.884C-157.29 477.675 -164.398 465.363 -161.189 453.384L-124.417 316.151C-121.208 304.173 -108.896 297.065 -96.9174 300.274L143.843 364.786C155.821 367.995 162.929 380.307 159.72 392.285L122.948 529.519C119.739 541.497 107.427 548.605 95.4484 545.396Z" fill="#95D1F9"/>
<path d="M157.456 400.734L-126.681 324.6L-124.417 316.151C-121.208 304.173 -108.896 297.065 -96.9174 300.274L143.843 364.786C155.821 367.995 162.929 380.307 159.72 392.285L157.456 400.734Z" fill="#6AAED8"/>
<rect width="130.614" height="20.7071" rx="10.3536" transform="matrix(-0.965926 -0.258819 -0.258819 0.965926 117.672 437.709)" fill="#6AAED8"/>
<rect width="130.614" height="20.7071" rx="10.3536" transform="matrix(-0.965926 -0.258819 -0.258819 0.965926 108.602 471.559)" fill="#6AAED8"/>
<path d="M945.303 537.956L784.099 494.761C776.079 492.612 771.32 484.369 773.469 476.349L798.09 384.463C800.239 376.443 808.482 371.683 816.502 373.832L977.705 417.027C985.726 419.176 990.485 427.419 988.336 435.439L963.715 527.325C961.566 535.345 953.323 540.105 945.303 537.956Z" fill="#95D1F9"/>
<path d="M986.82 441.096L796.574 390.12L798.09 384.463C800.239 376.443 808.482 371.683 816.502 373.832L977.705 417.027C985.726 419.176 990.485 427.419 988.336 435.439L986.82 441.096Z" fill="#6AAED8"/>
<rect width="52.2591" height="52.2591" rx="9.10951" transform="matrix(-0.965926 -0.258819 -0.258819 0.965926 859.851 432.346)" fill="#6AAED8"/>
<path d="M815.885 455.194C815.209 455.793 814.729 456.577 814.495 457.45L813.976 459.366C813.451 461.305 814.601 463.302 816.541 463.822L831.685 467.88C833.627 468.4 835.622 467.244 836.135 465.301L836.642 463.384C836.84 462.645 836.801 461.456 836.558 460.732L835.145 456.538C834.71 455.251 833.295 453.92 831.986 453.57L823.438 451.279C822.125 450.928 820.235 451.373 819.215 452.269L815.885 455.194Z" fill="white"/>
<circle cx="830.743" cy="441.133" r="7.48846" transform="rotate(15 830.743 441.133)" fill="white"/>
<rect width="87.4539" height="13.8646" rx="6.93232" transform="matrix(-0.965926 -0.258819 -0.258819 0.965926 960.182 465.854)" fill="#6AAED8"/>
<rect width="87.4539" height="13.8646" rx="6.93232" transform="matrix(-0.965926 -0.258819 -0.258819 0.965926 954.109 488.518)" fill="#6AAED8"/>
<circle cx="814.317" cy="383.844" r="3.1997" transform="rotate(15 814.317 383.844)" fill="white"/>
<circle cx="824.619" cy="386.605" r="3.1997" transform="rotate(15 824.619 386.605)" fill="white"/>
<circle cx="834.92" cy="389.364" r="3.1997" transform="rotate(15 834.92 389.364)" fill="white"/>
<path d="M162.538 234.644L1.33446 277.839C-6.68573 279.988 -14.9292 275.228 -17.0782 267.208L-41.6989 175.322C-43.8479 167.302 -39.0886 159.059 -31.0684 156.91L130.135 113.715C138.155 111.566 146.398 116.326 148.547 124.346L173.168 216.232C175.317 224.252 170.558 232.495 162.538 234.644Z" fill="#95D1F9"/>
<path d="M150.063 130.003L-40.1831 180.979L-41.6989 175.322C-43.8479 167.302 -39.0886 159.059 -31.0684 156.91L130.135 113.715C138.155 111.566 146.398 116.326 148.547 124.346L150.063 130.003Z" fill="#6AAED8"/>
<rect width="52.2591" height="52.2591" rx="9.10951" transform="matrix(-0.965926 0.258819 0.258819 0.965926 35.7296 185.909)" fill="#6AAED8"/>
<path d="M9.07675 227.679C8.79102 228.536 8.76746 229.455 9.00135 230.327L9.51028 232.246C10.0253 234.188 12.0192 235.343 13.9597 234.823L29.1037 230.765C31.0452 230.245 32.1947 228.246 31.6681 226.307L31.1487 224.393C30.9508 223.654 30.3221 222.644 29.75 222.138L26.4285 219.213C25.4081 218.316 23.5178 217.871 22.2095 218.222L13.6609 220.512C12.3482 220.864 10.9337 222.195 10.4985 223.481L9.07675 227.679Z" fill="white"/>
<circle cx="14.9144" cy="208.072" r="7.48846" transform="rotate(-15 14.9144 208.072)" fill="white"/>
<rect width="87.4539" height="13.8646" rx="6.93232" transform="matrix(-0.965926 0.258819 0.258819 0.965926 139.372 164.762)" fill="#6AAED8"/>
<rect width="87.4539" height="13.8646" rx="6.93232" transform="matrix(-0.965926 0.258819 0.258819 0.965926 145.445 187.427)" fill="#6AAED8"/>
</g>
<defs>
<clipPath id="clip0_16_420">
<rect width="945" height="495" fill="white"/>
</clipPath>
</defs>
</svg>
